<svg width="128" height="80" viewBox="0 0 128 80" fill="none" xmlns="http://www.w3.org/2000/svg">
<g clip-path="url(#clip0_1440_22707)">
<path d="M46.5859 8.44727H81.119V69.3316H46.5859V8.44727Z" fill="#FF5F00"/>
<path d="M48.7799 38.8927C48.7552 27.0379 54.3086 15.8232 63.8551 8.44821C47.7033 -4.03345 24.3652 -2.21011 10.4704 12.619C-3.49015 27.4548 -3.49015 50.3213 10.4704 65.1573C24.3633 79.9848 47.6978 81.8102 63.8505 69.3328C54.3049 61.9586 48.752 50.7457 48.7749 38.8927H48.7799Z" fill="#EB001B"/>
<path d="M127.707 38.8931C127.737 53.6709 119.121 67.179 105.491 73.7207C91.9046 80.2007 75.6943 78.4923 63.8516 69.3327C73.3926 61.9532 78.946 50.7421 78.9318 38.8884C78.9469 27.0356 73.3953 15.8246 63.8561 8.44379C75.7002 -0.714181 91.9105 -2.42043 105.496 4.0609C119.126 10.6024 127.742 24.1106 127.712 38.8884V38.8931H127.707ZM124.304 64.3421V61.8821H125.055V61.3732H123.15V61.8821H123.97V64.3421H124.304ZM128.002 64.3421V61.3732H127.426L126.752 63.4936L126.083 61.3732H125.569V64.3421H125.986V62.1176L126.611 64.0501H127.042L127.668 62.1176V64.3656L128.002 64.3421Z" fill="#F79E1B"/>
</g>
<defs>
<clipPath id="clip0_1440_22707">
<rect width="128" height="80" fill="white"/>
</clipPath>
</defs>
</svg>
